<?xml version="1.0" encoding="utf-8"?>
<!-- Generator: Adobe Illustrator 22.1.0, SVG Export Plug-In . SVG Version: 6.00 Build 0)  -->
<svg version="1.1" id="Layer_1" xmlns="http://www.w3.org/2000/svg" xmlns:xlink="http://www.w3.org/1999/xlink" x="0px" y="0px"
	 viewBox="0 0 576 512" style="enable-background:new 0 0 576 512;" xml:space="preserve">
<style type="text/css">
	.st0{fill:#626E7A;}
	.st1{fill:#150200;}
	.st2{fill:#FFF7F4;}
	.st3{fill:#003865;}
	.st4{fill:#D24204;}
</style>
<path class="st0" d="M575.1,443.2L575.1,443.2L461.5,19.1C458.2,6.7,445.6-3.2,430.2,1l-15.5,4.1c-6.2,1.7-11.5,6.4-16.1,14.2
	c-14,6.9-52.3,17.2-68,18.2c-7.8-4.5-14.8-6-21-4.3l-15.5,4.1c-2.4,0.6-4.2,1.9-6.1,3.1V32c0-17.7-14.3-32-32-32h-64
	c-17.7,0-32,14.3-32,32v64h128l101.7,396.9c3.3,12.4,15.9,22.2,31.4,18.1l15.5-4.1c6.2-1.7,11.5-6.4,16.1-14.2
	c13.9-6.9,52.2-17.2,68-18.2c7.8,4.5,14.8,6,21,4.3l15.5-4.1C572.5,470.5,578.4,455.6,575.1,443.2z"/>
<rect x="393.6" y="78" transform="matrix(0.966 -0.2587 0.2587 0.966 -51.7353 118.7996)" class="st1" width="64" height="355.9"/>
<rect x="393.6" y="78" transform="matrix(0.966 -0.2587 0.2587 0.966 -51.7353 118.7996)" class="st2" width="64" height="355.9"/>
<rect y="128" class="st3" width="128" height="256"/>
<path class="st3" d="M96,0H32C14.3,0,0,14.3,0,32v64h128V32C128,14.3,113.7,0,96,0z"/>
<path class="st3" d="M0,480c0,17.7,14.3,32,32,32h64c17.7,0,32-14.3,32-32v-64H0V480z"/>
<rect x="160" y="128" class="st4" width="128" height="256"/>
<path class="st4" d="M160,480c0,17.7,14.3,32,32,32h64c17.7,0,32-14.3,32-32v-64H160V480z"/>
<rect x="160" y="128" class="st4" width="128" height="256"/>
<path class="st4" d="M256,0h-64c-17.7,0-32,14.3-32,32v64h128V32C288,14.3,273.7,0,256,0z"/>
<path class="st4" d="M160,480c0,17.7,14.3,32,32,32h64c17.7,0,32-14.3,32-32v-64H160V480z"/>
</svg>
