<?xml version="1.0" encoding="utf-8"?>
<!-- Generator: Adobe Illustrator 22.1.0, SVG Export Plug-In . SVG Version: 6.00 Build 0)  -->
<svg version="1.1" id="Layer_1" xmlns="http://www.w3.org/2000/svg" xmlns:xlink="http://www.w3.org/1999/xlink" x="0px" y="0px"
	 viewBox="0 0 576 512" style="enable-background:new 0 0 576 512;" xml:space="preserve">
<style type="text/css">
	.st0{fill:#626E7A;}
	.st1{fill:#D24204;}
	.st2{fill:#003865;}
</style>
<path class="st0" d="M501.7,241.3c-6.4-122.4-104.5-220.6-227-227c-6.9-0.3-12.7,5.1-12.7,12V254h227.7
	C496.6,254,502,248.2,501.7,241.3z"/>
<path class="st1" d="M493.7,271.1H266l161,161c4.9,4.9,12.9,4.6,17.5-0.5c38-42.2,58.4-94.6,61.2-147.8
	C506,276.9,500.6,271.1,493.7,271.1z"/>
<path class="st2" d="M240,272V44.3c0-6.9-5.8-12.4-12.7-12C100.8,38.9,0.2,143.4,0,271.5C-0.2,403.8,107.6,511.9,239.8,512
	c61.8,0,118.2-23.3,160.8-61.7c5.1-4.5,5.2-12.5,0.4-17.3L240,272z"/>
</svg>
