<?xml version="1.0" encoding="utf-8"?>
<!-- Generator: Adobe Illustrator 22.1.0, SVG Export Plug-In . SVG Version: 6.00 Build 0)  -->
<svg version="1.1" id="Layer_1" xmlns="http://www.w3.org/2000/svg" xmlns:xlink="http://www.w3.org/1999/xlink" x="0px" y="0px"
	 viewBox="0 0 512 512" style="enable-background:new 0 0 512 512;" xml:space="preserve">
<style type="text/css">
	.st0{fill:#003865;}
	.st1{fill:#D24204;}
	.st2{fill:#626E7A;}
</style>
<circle class="st0" cx="128" cy="160" r="32"/>
<circle class="st1" cx="128" cy="256" r="32"/>
<path class="st2" d="M410,334H198c-3.3,0-6,2.7-6,6v24c0,3.3,2.7,6,6,6h212c3.3,0,6-2.7,6-6v-24C416,336.7,413.3,334,410,334z"/>
<circle class="st2" cx="128" cy="352" r="32"/>
<path class="st2" d="M464,32H48C21.5,32,0,53.5,0,80v352c0,26.5,21.5,48,48,48h416c26.5,0,48-21.5,48-48V80
	C512,53.5,490.5,32,464,32z M480,432c0,8.8-7.2,16-16,16H48c-8.8,0-16-7.2-16-16V80c0-8.8,7.2-16,16-16h416c8.8,0,16,7.2,16,16V432z
	"/>
<path class="st1" d="M410,238H198c-3.3,0-6,2.7-6,6v24c0,3.3,2.7,6,6,6h212c3.3,0,6-2.7,6-6v-24C416,240.7,413.3,238,410,238z"/>
<path class="st0" d="M410,142H198c-3.3,0-6,2.7-6,6v24c0,3.3,2.7,6,6,6h212c3.3,0,6-2.7,6-6v-24C416,144.7,413.3,142,410,142z"/>
</svg>
